<svg id="svg" version="1.1" xmlns="http://www.w3.org/2000/svg" xmlns:xlink="http://www.w3.org/1999/xlink" width="400" height="400" viewBox="0, 0, 400,400"><g id="svgg"><path id="path0" d="M193.200 9.891 C 190.268 11.006,187.668 17.006,189.600 18.200 C 191.009 19.071,189.718 20.800,187.658 20.800 C 186.564 20.800,182.688 23.100,181.715 24.327 C 175.931 31.616,180.021 42.179,189.000 43.142 L 191.400 43.400 191.600 103.600 C 191.710 136.771,191.957 164.043,192.149 164.341 C 192.745 165.265,195.063 166.033,196.081 165.643 C 198.063 164.885,198.365 164.075,198.486 159.184 L 198.600 154.600 200.600 154.600 L 202.600 154.600 202.800 159.200 L 203.000 163.800 205.832 163.916 C 207.389 163.980,209.149 163.847,209.743 163.621 L 210.824 163.211 210.712 158.105 L 210.600 153.000 208.510 152.790 C 204.774 152.414,204.072 148.799,207.655 148.387 C 210.672 148.040,210.800 147.793,210.800 142.341 C 210.800 136.800,210.800 136.800,206.254 136.800 C 202.943 136.800,202.800 136.999,202.800 141.600 C 202.800 144.053,202.627 145.613,202.320 145.920 C 201.538 146.702,199.289 146.513,198.814 145.626 C 198.280 144.628,198.235 45.687,198.768 44.285 C 199.085 43.450,199.464 43.287,201.528 43.100 C 213.877 41.980,214.545 23.103,202.318 20.785 C 199.760 20.299,199.828 20.386,200.577 18.594 C 202.687 13.544,198.033 8.054,193.200 9.891 M197.023 12.706 C 199.906 14.708,198.687 19.200,195.260 19.200 C 192.060 19.200,190.391 15.573,192.582 13.382 C 193.565 12.399,196.039 12.022,197.023 12.706 M115.469 76.665 C 115.321 76.812,115.200 83.288,115.200 91.055 L 115.200 105.177 112.900 106.262 C 105.721 109.651,102.281 112.511,100.832 116.297 C 100.012 118.440,99.450 252.508,100.249 255.488 C 100.543 256.584,101.548 256.152,105.479 253.239 C 106.843 252.227,108.875 250.770,109.994 250.000 C 112.162 248.508,115.936 245.829,116.600 245.312 C 116.820 245.140,117.810 244.461,118.800 243.801 C 119.790 243.142,120.690 242.511,120.800 242.400 C 120.910 242.289,121.810 241.659,122.800 241.000 C 123.790 240.341,124.690 239.712,124.800 239.601 C 124.910 239.491,125.540 239.025,126.200 238.568 C 129.556 236.240,135.774 231.859,138.252 230.076 C 139.381 229.264,141.952 227.430,143.967 226.000 C 145.982 224.570,149.828 221.837,152.515 219.927 C 155.202 218.017,158.261 215.857,159.314 215.127 C 161.394 213.685,163.686 212.067,167.891 209.070 C 170.620 207.125,177.388 202.316,183.885 197.706 C 185.818 196.334,189.020 194.040,191.000 192.609 C 195.579 189.299,194.425 189.125,201.511 194.194 C 204.090 196.039,207.062 198.145,208.115 198.874 C 209.168 199.603,211.277 201.100,212.800 202.200 C 214.323 203.300,216.483 204.830,217.600 205.600 C 218.717 206.370,220.877 207.900,222.400 209.000 C 223.923 210.100,226.032 211.597,227.085 212.327 C 230.222 214.501,238.844 220.628,241.078 222.271 C 242.221 223.112,244.073 224.430,245.193 225.200 C 246.314 225.970,248.477 227.500,250.000 228.600 C 251.523 229.700,253.683 231.230,254.800 232.000 C 255.917 232.770,258.077 234.300,259.600 235.400 C 261.123 236.500,263.232 237.997,264.285 238.726 C 265.338 239.455,268.270 241.526,270.800 243.327 C 273.330 245.129,275.850 246.905,276.400 247.273 C 276.950 247.641,278.660 248.853,280.200 249.966 C 287.750 255.424,289.478 256.521,289.771 256.047 C 290.542 254.799,290.016 117.314,289.234 115.557 C 287.882 112.523,284.506 109.796,278.305 106.731 L 275.210 105.201 275.105 90.900 L 275.000 76.600 239.200 76.600 L 203.400 76.600 203.288 81.900 C 203.227 84.815,203.227 87.242,203.288 87.294 C 203.350 87.345,216.900 87.480,233.400 87.594 L 263.400 87.800 263.510 94.370 C 263.639 102.068,263.810 101.755,259.761 101.218 C 241.082 98.739,223.969 101.231,208.400 108.698 C 203.026 111.275,203.200 111.022,203.200 116.275 C 203.200 121.506,203.403 121.714,206.480 119.641 C 209.267 117.763,220.143 112.400,221.164 112.400 C 221.389 112.400,222.164 112.140,222.886 111.821 C 233.128 107.311,258.097 107.322,268.714 111.841 C 269.436 112.148,270.246 112.400,270.514 112.400 C 271.438 112.400,277.518 115.661,278.457 116.661 L 279.400 117.664 279.508 176.504 C 279.627 241.636,279.860 236.749,276.740 234.561 C 274.059 232.680,270.832 230.425,269.400 229.432 C 268.740 228.975,268.110 228.509,268.000 228.399 C 267.890 228.288,266.990 227.658,266.000 226.999 C 265.010 226.339,263.988 225.620,263.728 225.400 C 263.468 225.180,262.337 224.370,261.214 223.600 C 260.091 222.830,258.284 221.570,257.200 220.800 C 256.116 220.030,254.367 218.803,253.314 218.073 C 252.261 217.343,249.150 215.150,246.400 213.200 C 243.650 211.250,240.590 209.090,239.600 208.400 C 237.699 207.075,230.484 201.953,224.389 197.600 C 222.387 196.170,220.350 194.730,219.863 194.400 C 219.375 194.070,217.388 192.663,215.445 191.273 C 212.110 188.885,210.780 187.946,206.000 184.600 C 204.900 183.830,203.055 182.533,201.900 181.719 C 195.171 176.973,194.995 176.931,191.806 179.293 C 190.836 180.012,189.126 181.230,188.006 182.000 C 186.886 182.770,184.723 184.300,183.200 185.400 C 181.677 186.500,179.568 187.997,178.515 188.727 C 176.737 189.959,172.128 193.227,163.179 199.600 C 161.171 201.030,158.744 202.740,157.786 203.400 C 156.210 204.485,152.066 207.424,146.786 211.200 C 145.709 211.970,143.916 213.230,142.800 214.000 C 140.591 215.525,136.839 218.190,136.200 218.688 C 135.980 218.860,134.990 219.539,134.000 220.199 C 133.010 220.858,132.110 221.489,132.000 221.600 C 131.890 221.711,130.990 222.342,130.000 223.001 C 129.010 223.661,127.988 224.380,127.728 224.600 C 127.468 224.820,126.337 225.630,125.214 226.400 C 124.091 227.170,122.284 228.430,121.200 229.200 C 120.116 229.970,118.313 231.230,117.193 232.000 C 116.074 232.770,114.342 234.005,113.344 234.745 C 111.963 235.769,111.419 235.979,111.065 235.624 C 110.392 234.948,110.650 119.025,111.328 117.629 C 111.771 116.717,114.995 114.085,115.740 114.027 C 115.926 114.012,116.646 113.738,117.340 113.418 C 120.210 112.092,124.191 110.918,129.000 109.979 C 130.100 109.764,131.990 109.385,133.200 109.136 C 140.447 107.646,155.903 108.340,163.400 110.491 C 169.445 112.226,176.647 115.324,181.400 118.234 C 182.280 118.773,183.360 119.390,183.800 119.606 C 184.240 119.822,184.891 120.207,185.246 120.463 C 186.800 121.581,187.200 120.681,187.200 116.066 L 187.200 111.706 185.700 110.733 C 179.504 106.712,166.102 102.290,156.800 101.198 C 144.931 99.805,141.265 99.808,130.660 101.215 C 126.300 101.794,126.399 101.937,126.405 95.051 C 126.408 91.943,126.519 88.995,126.652 88.500 L 126.893 87.600 156.547 87.594 C 172.856 87.591,186.431 87.441,186.712 87.263 C 187.096 87.019,187.197 85.635,187.112 81.769 L 187.000 76.600 151.369 76.498 C 131.772 76.442,115.617 76.517,115.469 76.665 M86.995 177.630 C 85.678 179.407,84.416 181.072,84.192 181.330 C 83.967 181.589,83.067 182.683,82.192 183.763 L 80.600 185.726 80.496 238.474 C 80.404 284.894,80.463 291.249,80.987 291.450 C 81.665 291.710,84.380 290.134,88.907 286.852 C 90.616 285.614,93.252 283.700,94.766 282.600 C 96.280 281.500,97.912 280.330,98.393 280.000 C 98.873 279.670,100.593 278.410,102.213 277.200 C 103.834 275.990,106.436 274.100,107.996 273.000 C 109.555 271.900,111.636 270.405,112.619 269.679 C 115.235 267.746,115.200 267.607,115.200 279.991 C 115.200 293.206,114.829 291.888,119.283 294.493 C 121.264 295.652,123.361 296.911,123.942 297.290 C 124.524 297.670,125.572 298.300,126.270 298.690 C 127.743 299.513,136.422 304.714,137.801 305.600 C 138.315 305.930,141.459 307.820,144.788 309.800 C 148.117 311.780,151.265 313.670,151.784 314.000 C 152.605 314.522,161.538 319.912,165.374 322.200 C 171.404 325.796,176.242 328.713,177.134 329.290 C 177.720 329.670,178.773 330.300,179.473 330.690 C 180.846 331.456,189.340 336.561,191.116 337.687 C 194.585 339.887,195.071 340.006,196.758 339.065 C 198.421 338.138,207.049 332.994,208.609 332.000 C 209.127 331.670,211.136 330.449,213.075 329.288 C 215.014 328.126,216.870 327.011,217.200 326.809 C 217.530 326.608,218.671 325.938,219.735 325.321 C 220.800 324.705,222.086 323.930,222.593 323.600 C 223.100 323.270,225.173 322.010,227.200 320.800 C 229.227 319.590,231.361 318.288,231.942 317.906 C 232.524 317.524,233.360 317.020,233.800 316.785 C 234.240 316.551,235.256 315.963,236.058 315.479 C 236.860 314.996,239.620 313.340,242.192 311.800 C 244.763 310.260,247.293 308.730,247.813 308.400 C 248.333 308.070,251.483 306.180,254.812 304.200 C 258.141 302.220,261.285 300.330,261.799 300.000 C 264.030 298.566,272.146 293.751,273.184 293.245 C 275.094 292.313,275.200 291.592,275.200 279.581 C 275.200 267.321,275.099 267.721,277.717 269.623 C 283.950 274.153,285.216 275.065,286.013 275.600 C 286.505 275.930,288.098 277.104,289.553 278.209 C 291.009 279.314,292.920 280.717,293.800 281.327 C 294.680 281.937,296.750 283.411,298.400 284.603 C 301.544 286.873,305.824 289.791,307.711 290.950 C 308.323 291.326,308.998 291.525,309.211 291.393 C 309.460 291.239,309.600 272.169,309.600 238.553 L 309.600 185.953 305.300 180.394 C 302.935 177.337,300.820 174.887,300.600 174.949 C 299.848 175.164,299.679 179.415,299.606 200.000 C 299.463 239.961,299.002 270.358,298.531 270.829 C 297.977 271.383,297.107 270.947,293.745 268.435 C 292.395 267.426,290.887 266.330,290.395 266.000 C 289.902 265.670,288.173 264.410,286.553 263.200 C 284.932 261.990,282.340 260.100,280.793 259.000 C 277.636 256.755,273.239 253.590,270.116 251.317 C 268.970 250.483,266.810 248.934,265.316 247.876 C 263.822 246.817,259.960 244.027,256.734 241.676 C 253.507 239.324,250.471 237.130,249.986 236.800 C 249.502 236.470,247.822 235.248,246.253 234.086 C 242.877 231.583,238.702 228.566,234.790 225.800 C 233.234 224.700,230.983 223.080,229.789 222.200 C 228.594 221.320,226.398 219.734,224.908 218.676 C 223.419 217.617,219.560 214.827,216.334 212.476 C 213.107 210.124,210.077 207.930,209.599 207.600 C 209.122 207.270,206.902 205.654,204.666 204.010 C 202.430 202.365,199.368 200.171,197.863 199.133 L 195.125 197.247 192.663 199.008 C 191.308 199.977,189.030 201.597,187.600 202.608 C 186.170 203.619,183.920 205.238,182.600 206.205 C 181.280 207.173,179.480 208.468,178.601 209.082 C 177.721 209.697,174.542 212.000,171.537 214.200 C 168.531 216.400,165.680 218.470,165.202 218.800 C 164.724 219.130,161.693 221.324,158.466 223.676 C 155.240 226.027,151.430 228.782,150.000 229.798 C 147.744 231.400,138.300 238.219,136.303 239.688 C 135.920 239.969,132.993 242.090,129.798 244.400 C 126.603 246.710,121.337 250.524,118.095 252.876 C 114.853 255.227,111.030 257.982,109.600 258.998 C 106.650 261.093,96.813 268.197,96.191 268.681 C 94.934 269.660,92.111 271.499,91.561 271.697 C 90.572 272.054,90.400 263.996,90.400 217.169 C 90.400 194.342,90.291 175.381,90.157 175.033 C 89.769 174.020,89.521 174.224,86.995 177.630 M191.572 218.271 C 191.610 223.301,191.750 223.200,184.771 223.200 C 176.760 223.200,176.799 223.043,186.520 216.227 C 191.676 212.611,191.528 212.552,191.572 218.271 M202.678 215.358 C 213.592 223.432,213.509 223.200,205.480 223.200 C 198.504 223.200,198.800 223.422,198.800 218.187 C 198.800 212.935,199.103 212.714,202.678 215.358 M190.826 230.814 C 191.554 231.203,191.600 231.733,191.600 239.624 L 191.600 248.020 190.553 248.418 C 189.944 248.649,185.977 248.771,181.053 248.708 L 172.600 248.600 172.465 246.600 C 172.340 244.749,173.066 239.482,174.035 235.200 C 175.223 229.954,174.402 230.400,182.875 230.400 C 187.058 230.400,190.375 230.573,190.826 230.814 M215.639 232.800 C 216.034 234.010,216.465 235.720,216.596 236.600 C 216.726 237.480,217.109 239.822,217.446 241.804 C 217.784 243.786,218.001 246.126,217.930 247.004 L 217.800 248.600 210.000 248.720 C 205.710 248.785,201.435 248.729,200.500 248.595 L 198.800 248.351 198.800 239.605 C 198.800 231.613,198.860 230.843,199.500 230.671 C 199.885 230.568,203.512 230.510,207.559 230.542 L 214.919 230.600 215.639 232.800 M237.193 240.414 C 238.434 241.397,238.655 241.875,239.222 244.796 L 239.858 248.074 238.903 248.437 C 237.655 248.911,227.535 248.908,226.285 248.432 C 225.368 248.084,225.303 247.833,225.037 243.630 C 224.883 241.191,224.588 238.701,224.383 238.098 C 223.676 236.023,223.204 231.445,223.667 231.159 C 224.034 230.932,232.762 236.904,237.193 240.414 M166.800 232.371 C 166.800 233.014,166.440 235.368,166.000 237.600 C 165.560 239.832,165.200 243.090,165.200 244.839 C 165.200 248.805,165.209 248.800,157.800 248.800 C 151.864 248.800,150.206 248.441,150.588 247.238 C 150.721 246.820,150.997 245.425,151.202 244.139 C 151.621 241.503,151.909 241.184,157.387 237.275 C 159.140 236.024,161.750 234.155,163.187 233.123 C 166.276 230.903,166.800 230.794,166.800 232.371 M142.799 248.900 C 142.794 253.110,143.306 260.113,143.750 261.902 C 144.064 263.166,144.445 264.920,144.596 265.800 C 144.748 266.680,145.011 267.580,145.181 267.800 C 145.351 268.020,145.611 268.740,145.759 269.400 C 146.046 270.683,146.462 271.666,148.260 275.315 C 154.565 288.112,166.363 298.197,179.600 302.104 C 186.678 304.194,186.725 304.200,195.000 304.200 C 206.149 304.200,211.100 302.935,221.251 297.495 C 236.341 289.407,247.200 271.149,247.200 253.866 C 247.200 247.698,247.628 247.436,251.877 251.000 C 252.139 251.220,253.635 252.300,255.200 253.400 C 256.766 254.500,259.296 256.355,260.823 257.523 L 263.600 259.646 263.600 272.583 L 263.600 285.521 262.100 286.451 C 261.275 286.962,260.330 287.522,260.000 287.695 C 259.670 287.868,258.914 288.322,258.320 288.705 C 257.727 289.087,254.517 291.020,251.188 293.000 C 247.859 294.980,244.719 296.870,244.210 297.200 C 243.461 297.686,238.559 300.643,235.258 302.600 C 234.389 303.115,230.800 305.269,229.932 305.795 C 229.565 306.018,227.165 307.460,224.599 309.000 C 222.032 310.540,219.453 312.111,218.866 312.490 C 218.280 312.870,217.228 313.500,216.530 313.890 C 215.072 314.705,206.398 319.901,204.997 320.800 C 202.026 322.704,195.558 326.400,195.196 326.400 C 194.851 326.400,184.400 320.378,180.619 318.000 C 180.094 317.670,176.941 315.780,173.612 313.800 C 170.283 311.820,167.137 309.930,166.621 309.600 C 166.105 309.270,163.579 307.740,161.008 306.200 C 158.436 304.660,155.907 303.130,155.387 302.800 C 154.867 302.470,151.717 300.580,148.388 298.600 C 145.059 296.620,141.906 294.730,141.380 294.400 C 140.854 294.070,137.430 292.008,133.771 289.817 C 125.702 284.988,126.400 286.642,126.400 272.348 C 126.400 258.605,125.995 259.650,133.201 254.800 C 133.691 254.470,134.477 253.908,134.946 253.552 C 140.686 249.195,142.801 247.943,142.799 248.900 M164.400 256.800 C 165.046 257.446,165.200 258.133,165.200 260.371 C 165.200 261.894,165.545 264.909,165.966 267.071 C 167.443 274.643,167.593 274.400,161.427 274.400 C 156.605 274.400,156.145 274.241,155.081 272.200 C 151.953 266.203,149.945 257.614,151.418 256.537 C 152.734 255.575,163.391 255.791,164.400 256.800 M191.209 256.800 C 191.805 257.745,191.706 272.902,191.099 273.733 C 190.651 274.346,189.791 274.407,182.999 274.309 L 175.400 274.200 174.544 271.400 C 173.128 266.770,171.964 258.114,172.551 256.584 C 172.902 255.669,190.624 255.874,191.209 256.800 M217.860 257.096 C 218.011 257.699,217.906 259.634,217.626 261.396 C 217.346 263.158,216.958 265.770,216.763 267.200 C 216.569 268.630,216.228 270.295,216.005 270.900 C 215.782 271.505,215.398 272.540,215.151 273.200 L 214.703 274.400 207.231 274.400 C 197.935 274.400,198.799 275.321,198.806 265.420 C 198.814 255.023,197.662 256.074,209.092 256.032 L 217.585 256.000 217.860 257.096 M238.972 256.530 C 240.329 257.522,238.267 266.319,235.299 272.200 C 234.266 274.248,233.814 274.400,228.773 274.400 C 222.932 274.400,222.983 274.446,223.834 269.958 C 224.184 268.111,224.680 264.470,224.935 261.867 C 225.317 257.977,225.538 257.034,226.176 256.567 C 227.249 255.784,237.909 255.753,238.972 256.530 M170.171 282.629 C 170.517 282.974,170.800 283.494,170.800 283.783 C 170.800 284.072,171.604 285.859,172.588 287.754 C 174.497 291.435,174.397 291.831,171.880 290.547 C 169.200 289.179,162.400 283.380,162.400 282.462 C 162.400 281.696,169.389 281.846,170.171 282.629 M191.515 288.200 C 191.656 295.591,191.559 296.104,190.091 295.740 C 187.064 294.987,182.228 290.009,179.675 285.017 C 178.070 281.880,177.915 281.963,185.130 282.090 L 191.400 282.200 191.515 288.200 M211.707 282.240 C 212.359 282.893,207.540 290.237,204.859 292.675 C 202.813 294.536,199.827 296.187,199.204 295.802 C 198.755 295.525,198.625 282.708,199.067 282.267 C 199.398 281.935,211.377 281.910,211.707 282.240 M227.766 282.345 C 228.237 283.107,221.703 288.721,218.054 290.690 C 216.641 291.452,215.350 291.383,216.016 290.581 C 216.586 289.893,219.600 283.740,219.600 283.263 C 219.600 282.124,227.108 281.280,227.766 282.345 M151.493 331.558 C 149.022 333.955,145.785 337.088,144.300 338.521 C 141.129 341.581,141.069 341.918,143.279 344.238 C 145.573 346.645,146.024 346.531,150.216 342.488 C 152.205 340.569,155.686 337.258,157.952 335.128 C 162.712 330.655,162.782 330.335,159.430 328.417 C 156.460 326.718,156.498 326.703,151.493 331.558 M230.544 328.537 C 227.654 330.524,227.755 330.874,232.482 335.296 C 234.747 337.415,238.220 340.687,240.200 342.568 C 244.381 346.539,244.747 346.623,247.000 344.133 C 249.269 341.627,249.373 341.812,241.271 333.988 C 233.470 326.455,233.528 326.484,230.544 328.537 M176.605 340.300 C 176.489 340.905,176.132 342.570,175.812 344.000 C 175.492 345.430,175.123 347.320,174.992 348.200 C 174.860 349.080,174.510 350.880,174.213 352.200 C 173.916 353.520,173.459 355.680,173.198 357.000 C 172.936 358.320,172.484 360.570,172.192 362.000 C 171.901 363.430,171.375 366.129,171.023 367.997 C 170.672 369.866,170.211 372.020,170.000 372.785 C 169.517 374.534,169.631 374.636,173.046 375.533 C 176.802 376.519,177.414 376.259,177.754 373.534 C 177.901 372.360,178.275 370.230,178.585 368.800 C 180.115 361.744,180.372 360.468,180.600 358.800 C 180.735 357.810,181.096 355.830,181.402 354.400 C 183.460 344.768,183.592 343.973,183.262 343.128 C 182.881 342.151,178.347 339.200,177.227 339.200 C 177.001 339.200,176.720 339.695,176.605 340.300 M211.200 340.030 C 206.420 342.741,206.345 342.903,207.539 347.926 C 208.013 349.918,208.400 351.997,208.400 352.548 C 208.400 353.098,208.577 354.014,208.794 354.584 C 209.011 355.154,209.376 356.831,209.605 358.310 C 209.834 359.790,210.272 362.170,210.577 363.600 C 211.644 368.595,212.360 372.213,212.619 373.928 C 212.964 376.217,213.804 376.513,217.196 375.546 C 221.019 374.456,220.809 374.618,220.358 373.121 C 220.139 372.394,219.710 370.450,219.404 368.800 C 218.804 365.564,218.297 362.997,217.391 358.600 C 217.073 357.060,216.449 354.000,216.004 351.800 C 215.558 349.600,214.935 346.630,214.620 345.200 C 214.304 343.770,213.930 341.835,213.788 340.900 C 213.498 338.994,213.201 338.894,211.200 340.030 " stroke="none" fill="#292229" fill-rule="evenodd"></path><path id="path1" d="M0.000 200.000 L 0.000 400.000 200.000 400.000 L 400.000 400.000 400.000 200.000 L 400.000 0.000 200.000 0.000 L 0.000 0.000 0.000 200.000 M197.848 10.423 C 200.872 11.887,201.986 15.222,200.577 18.594 C 199.828 20.386,199.760 20.299,202.318 20.785 C 214.545 23.103,213.877 41.980,201.528 43.100 C 199.464 43.287,199.085 43.450,198.768 44.285 C 198.235 45.687,198.280 144.628,198.814 145.626 C 199.289 146.513,201.538 146.702,202.320 145.920 C 202.627 145.613,202.800 144.053,202.800 141.600 C 202.800 136.999,202.943 136.800,206.254 136.800 C 210.800 136.800,210.800 136.800,210.800 142.341 C 210.800 147.793,210.672 148.040,207.655 148.387 C 204.072 148.799,204.774 152.414,208.510 152.790 L 210.600 153.000 210.712 158.105 L 210.824 163.211 209.743 163.621 C 209.149 163.847,207.389 163.980,205.832 163.916 L 203.000 163.800 202.800 159.200 L 202.600 154.600 200.600 154.600 L 198.600 154.600 198.486 159.184 C 198.365 164.075,198.063 164.885,196.081 165.643 C 195.063 166.033,192.745 165.265,192.149 164.341 C 191.957 164.043,191.710 136.771,191.600 103.600 L 191.400 43.400 189.000 43.142 C 180.021 42.179,175.931 31.616,181.715 24.327 C 182.688 23.100,186.564 20.800,187.658 20.800 C 189.718 20.800,191.009 19.071,189.600 18.200 C 188.917 17.778,189.140 14.119,189.926 12.825 C 191.807 9.733,194.645 8.872,197.848 10.423 M192.582 13.382 C 190.391 15.573,192.060 19.200,195.260 19.200 C 196.927 19.200,198.800 17.431,198.800 15.858 C 198.800 12.802,194.768 11.196,192.582 13.382 M187.112 81.769 C 187.197 85.635,187.096 87.019,186.712 87.263 C 186.431 87.441,172.856 87.591,156.547 87.594 L 126.893 87.600 126.652 88.500 C 126.519 88.995,126.408 91.943,126.405 95.051 C 126.399 101.937,126.300 101.794,130.660 101.215 C 141.265 99.808,144.931 99.805,156.800 101.198 C 166.102 102.290,179.504 106.712,185.700 110.733 L 187.200 111.706 187.200 116.066 C 187.200 120.681,186.800 121.581,185.246 120.463 C 184.891 120.207,184.240 119.822,183.800 119.606 C 183.360 119.390,182.280 118.773,181.400 118.234 C 176.647 115.324,169.445 112.226,163.400 110.491 C 155.903 108.340,140.447 107.646,133.200 109.136 C 131.990 109.385,130.100 109.764,129.000 109.979 C 124.191 110.918,120.210 112.092,117.340 113.418 C 116.646 113.738,115.926 114.012,115.740 114.027 C 114.995 114.085,111.771 116.717,111.328 117.629 C 110.650 119.025,110.392 234.948,111.065 235.624 C 111.419 235.979,111.963 235.769,113.344 234.745 C 114.342 234.005,116.074 232.770,117.193 232.000 C 118.313 231.230,120.116 229.970,121.200 229.200 C 122.284 228.430,124.091 227.170,125.214 226.400 C 126.337 225.630,127.468 224.820,127.728 224.600 C 127.988 224.380,129.010 223.661,130.000 223.001 C 130.990 222.342,131.890 221.711,132.000 221.600 C 132.110 221.489,133.010 220.858,134.000 220.199 C 134.990 219.539,135.980 218.860,136.200 218.688 C 136.839 218.190,140.591 215.525,142.800 214.000 C 143.916 213.230,145.709 211.970,146.786 211.200 C 152.066 207.424,156.210 204.485,157.786 203.400 C 158.744 202.740,161.171 201.030,163.179 199.600 C 172.128 193.227,176.737 189.959,178.515 188.727 C 179.568 187.997,181.677 186.500,183.200 185.400 C 184.723 184.300,186.886 182.770,188.006 182.000 C 189.126 181.230,190.836 180.012,191.806 179.293 C 194.995 176.931,195.171 176.973,201.900 181.719 C 203.055 182.533,204.900 183.830,206.000 184.600 C 210.780 187.946,212.110 188.885,215.445 191.273 C 217.388 192.663,219.375 194.070,219.863 194.400 C 220.350 194.730,222.387 196.170,224.389 197.600 C 230.484 201.953,237.699 207.075,239.600 208.400 C 240.590 209.090,243.650 211.250,246.400 213.200 C 249.150 215.150,252.261 217.343,253.314 218.073 C 254.367 218.803,256.116 220.030,257.200 220.800 C 258.284 221.570,260.091 222.830,261.214 223.600 C 262.337 224.370,263.468 225.180,263.728 225.400 C 263.988 225.620,265.010 226.339,266.000 226.999 C 266.990 227.658,267.890 228.288,268.000 228.399 C 268.110 228.509,268.740 228.975,269.400 229.432 C 270.832 230.425,274.059 232.680,276.740 234.561 C 279.860 236.749,279.627 241.636,279.508 176.504 L 279.400 117.664 278.457 116.661 C 277.518 115.661,271.438 112.400,270.514 112.400 C 270.246 112.400,269.436 112.148,268.714 111.841 C 258.097 107.322,233.128 107.311,222.886 111.821 C 222.164 112.140,221.389 112.400,221.164 112.400 C 220.143 112.400,209.267 117.763,206.480 119.641 C 203.403 121.714,203.200 121.506,203.200 116.275 C 203.200 111.022,203.026 111.275,208.400 108.698 C 223.969 101.231,241.082 98.739,259.761 101.218 C 263.810 101.755,263.639 102.068,263.510 94.370 L 263.400 87.800 233.400 87.594 C 216.900 87.480,203.350 87.345,203.288 87.294 C 203.227 87.242,203.227 84.815,203.288 81.900 L 203.400 76.600 239.200 76.600 L 275.000 76.600 275.105 90.900 L 275.210 105.201 278.305 106.731 C 284.506 109.796,287.882 112.523,289.234 115.557 C 290.016 117.314,290.542 254.799,289.771 256.047 C 289.478 256.521,287.750 255.424,280.200 249.966 C 278.660 248.853,276.950 247.641,276.400 247.273 C 275.850 246.905,273.330 245.129,270.800 243.327 C 268.270 241.526,265.338 239.455,264.285 238.726 C 263.232 237.997,261.123 236.500,259.600 235.400 C 258.077 234.300,255.917 232.770,254.800 232.000 C 253.683 231.230,251.523 229.700,250.000 228.600 C 248.477 227.500,246.314 225.970,245.193 225.200 C 244.073 224.430,242.221 223.112,241.078 222.271 C 238.844 220.628,230.222 214.501,227.085 212.327 C 226.032 211.597,223.923 210.100,222.400 209.000 C 220.877 207.900,218.717 206.370,217.600 205.600 C 216.483 204.830,214.323 203.300,212.800 202.200 C 211.277 201.100,209.168 199.603,208.115 198.874 C 207.062 198.145,204.090 196.039,201.511 194.194 C 194.425 189.125,195.579 189.299,191.000 192.609 C 189.020 194.040,185.818 196.334,183.885 197.706 C 177.388 202.316,170.620 207.125,167.891 209.070 C 163.686 212.067,161.394 213.685,159.314 215.127 C 158.261 215.857,155.202 218.017,152.515 219.927 C 149.828 221.837,145.982 224.570,143.967 226.000 C 141.952 227.430,139.381 229.264,138.252 230.076 C 135.774 231.859,129.556 236.240,126.200 238.568 C 125.540 239.025,124.910 239.491,124.800 239.601 C 124.690 239.712,123.790 240.341,122.800 241.000 C 121.810 241.659,120.910 242.289,120.800 242.400 C 120.690 242.511,119.790 243.142,118.800 243.801 C 117.810 244.461,116.820 245.140,116.600 245.312 C 115.936 245.829,112.162 248.508,109.994 250.000 C 108.875 250.770,106.843 252.227,105.479 253.239 C 101.548 256.152,100.543 256.584,100.249 255.488 C 99.450 252.508,100.012 118.440,100.832 116.297 C 102.281 112.511,105.721 109.651,112.900 106.262 L 115.200 105.177 115.200 91.055 C 115.200 83.288,115.321 76.812,115.469 76.665 C 115.617 76.517,131.772 76.442,151.369 76.498 L 187.000 76.600 187.112 81.769 M90.157 175.033 C 90.291 175.381,90.400 194.342,90.400 217.169 C 90.400 263.996,90.572 272.054,91.561 271.697 C 92.111 271.499,94.934 269.660,96.191 268.681 C 96.813 268.197,106.650 261.093,109.600 258.998 C 111.030 257.982,114.853 255.227,118.095 252.876 C 121.337 250.524,126.603 246.710,129.798 244.400 C 132.993 242.090,135.920 239.969,136.303 239.688 C 138.300 238.219,147.744 231.400,150.000 229.798 C 151.430 228.782,155.240 226.027,158.466 223.676 C 161.693 221.324,164.724 219.130,165.202 218.800 C 165.680 218.470,168.531 216.400,171.537 214.200 C 174.542 212.000,177.721 209.697,178.601 209.082 C 179.480 208.468,181.280 207.173,182.600 206.205 C 183.920 205.238,186.170 203.619,187.600 202.608 C 189.030 201.597,191.308 199.977,192.663 199.008 L 195.125 197.247 197.863 199.133 C 199.368 200.171,202.430 202.365,204.666 204.010 C 206.902 205.654,209.122 207.270,209.599 207.600 C 210.077 207.930,213.107 210.124,216.334 212.476 C 219.560 214.827,223.419 217.617,224.908 218.676 C 226.398 219.734,228.594 221.320,229.789 222.200 C 230.983 223.080,233.234 224.700,234.790 225.800 C 238.702 228.566,242.877 231.583,246.253 234.086 C 247.822 235.248,249.502 236.470,249.986 236.800 C 250.471 237.130,253.507 239.324,256.734 241.676 C 259.960 244.027,263.822 246.817,265.316 247.876 C 266.810 248.934,268.970 250.483,270.116 251.317 C 273.239 253.590,277.636 256.755,280.793 259.000 C 282.340 260.100,284.932 261.990,286.553 263.200 C 288.173 264.410,289.902 265.670,290.395 266.000 C 290.887 266.330,292.395 267.426,293.745 268.435 C 297.107 270.947,297.977 271.383,298.531 270.829 C 299.002 270.358,299.463 239.961,299.606 200.000 C 299.679 179.415,299.848 175.164,300.600 174.949 C 300.820 174.887,302.935 177.337,305.300 180.394 L 309.600 185.953 309.600 238.553 C 309.600 272.169,309.460 291.239,309.211 291.393 C 308.998 291.525,308.323 291.326,307.711 290.950 C 305.824 289.791,301.544 286.873,298.400 284.603 C 296.750 283.411,294.680 281.937,293.800 281.327 C 292.920 280.717,291.009 279.314,289.553 278.209 C 288.098 277.104,286.505 275.930,286.013 275.600 C 285.216 275.065,283.950 274.153,277.717 269.623 C 275.099 267.721,275.200 267.321,275.200 279.581 C 275.200 291.592,275.094 292.313,273.184 293.245 C 272.146 293.751,264.030 298.566,261.799 300.000 C 261.285 300.330,258.141 302.220,254.812 304.200 C 251.483 306.180,248.333 308.070,247.813 308.400 C 247.293 308.730,244.763 310.260,242.192 311.800 C 239.620 313.340,236.860 314.996,236.058 315.479 C 235.256 315.963,234.240 316.551,233.800 316.785 C 233.360 317.020,232.524 317.524,231.942 317.906 C 231.361 318.288,229.227 319.590,227.200 320.800 C 225.173 322.010,223.100 323.270,222.593 323.600 C 222.086 323.930,220.800 324.705,219.735 325.321 C 218.671 325.938,217.530 326.608,217.200 326.809 C 216.870 327.011,215.014 328.126,213.075 329.288 C 211.136 330.449,209.127 331.670,208.609 332.000 C 207.049 332.994,198.421 338.138,196.758 339.065 C 195.071 340.006,194.585 339.887,191.116 337.687 C 189.340 336.561,180.846 331.456,179.473 330.690 C 178.773 330.300,177.720 329.670,177.134 329.290 C 176.242 328.713,171.404 325.796,165.374 322.200 C 161.538 319.912,152.605 314.522,151.784 314.000 C 151.265 313.670,148.117 311.780,144.788 309.800 C 141.459 307.820,138.315 305.930,137.801 305.600 C 136.422 304.714,127.743 299.513,126.270 298.690 C 125.572 298.300,124.524 297.670,123.942 297.290 C 123.361 296.911,121.264 295.652,119.283 294.493 C 114.829 291.888,115.200 293.206,115.200 279.991 C 115.200 267.607,115.235 267.746,112.619 269.679 C 111.636 270.405,109.555 271.900,107.996 273.000 C 106.436 274.100,103.834 275.990,102.213 277.200 C 100.593 278.410,98.873 279.670,98.393 280.000 C 97.912 280.330,96.280 281.500,94.766 282.600 C 93.252 283.700,90.616 285.614,88.907 286.852 C 84.380 290.134,81.665 291.710,80.987 291.450 C 80.463 291.249,80.404 284.894,80.496 238.474 L 80.600 185.726 82.192 183.763 C 83.067 182.683,83.967 181.589,84.192 181.330 C 84.416 181.072,85.678 179.407,86.995 177.630 C 89.521 174.224,89.769 174.020,90.157 175.033 M189.920 213.961 C 189.326 214.312,187.796 215.332,186.520 216.227 C 176.799 223.043,176.760 223.200,184.771 223.200 C 191.750 223.200,191.610 223.301,191.572 218.271 C 191.536 213.548,191.366 213.105,189.920 213.961 M199.071 213.862 C 198.580 214.354,198.765 222.205,199.280 222.720 C 199.609 223.049,201.564 223.200,205.480 223.200 C 213.509 223.200,213.592 223.432,202.678 215.358 C 200.842 214.000,199.493 213.441,199.071 213.862 M175.303 230.900 C 175.085 231.175,174.803 231.850,174.675 232.400 C 173.866 235.884,173.558 237.408,172.979 240.800 C 172.622 242.890,172.391 245.500,172.465 246.600 L 172.600 248.600 181.053 248.708 C 185.977 248.771,189.944 248.649,190.553 248.418 L 191.600 248.020 191.600 239.624 C 191.600 231.733,191.554 231.203,190.826 230.814 C 189.656 230.188,175.805 230.265,175.303 230.900 M199.500 230.671 C 198.860 230.843,198.800 231.613,198.800 239.605 L 198.800 248.351 200.500 248.595 C 201.435 248.729,205.710 248.785,210.000 248.720 L 217.800 248.600 217.930 247.004 C 218.001 246.126,217.784 243.786,217.446 241.804 C 217.109 239.822,216.726 237.480,216.596 236.600 C 216.465 235.720,216.034 234.010,215.639 232.800 L 214.919 230.600 207.559 230.542 C 203.512 230.510,199.885 230.568,199.500 230.671 M223.667 231.159 C 223.204 231.445,223.676 236.023,224.383 238.098 C 224.588 238.701,224.883 241.191,225.037 243.630 C 225.303 247.833,225.368 248.084,226.285 248.432 C 227.535 248.908,237.655 248.911,238.903 248.437 L 239.858 248.074 239.222 244.796 C 238.489 241.017,239.189 241.749,229.949 235.101 C 226.731 232.786,223.904 231.012,223.667 231.159 M163.187 233.123 C 161.750 234.155,159.140 236.024,157.387 237.275 C 151.909 241.184,151.621 241.503,151.202 244.139 C 150.997 245.425,150.721 246.820,150.588 247.238 C 150.206 248.441,151.864 248.800,157.800 248.800 C 165.209 248.800,165.200 248.805,165.200 244.839 C 165.200 243.090,165.560 239.832,166.000 237.600 C 167.407 230.459,167.248 230.205,163.187 233.123 M138.942 250.652 C 137.214 251.891,135.416 253.196,134.946 253.552 C 134.477 253.908,133.691 254.470,133.201 254.800 C 125.995 259.650,126.400 258.605,126.400 272.348 C 126.400 286.642,125.702 284.988,133.771 289.817 C 137.430 292.008,140.854 294.070,141.380 294.400 C 141.906 294.730,145.059 296.620,148.388 298.600 C 151.717 300.580,154.867 302.470,155.387 302.800 C 155.907 303.130,158.436 304.660,161.008 306.200 C 163.579 307.740,166.105 309.270,166.621 309.600 C 167.137 309.930,170.283 311.820,173.612 313.800 C 176.941 315.780,180.094 317.670,180.619 318.000 C 184.400 320.378,194.851 326.400,195.196 326.400 C 195.558 326.400,202.026 322.704,204.997 320.800 C 206.398 319.901,215.072 314.705,216.530 313.890 C 217.228 313.500,218.280 312.870,218.866 312.490 C 219.453 312.111,222.032 310.540,224.599 309.000 C 227.165 307.460,229.565 306.018,229.932 305.795 C 230.800 305.269,234.389 303.115,235.258 302.600 C 238.559 300.643,243.461 297.686,244.210 297.200 C 244.719 296.870,247.859 294.980,251.188 293.000 C 254.517 291.020,257.727 289.087,258.320 288.705 C 258.914 288.322,259.670 287.868,260.000 287.695 C 260.330 287.522,261.275 286.962,262.100 286.451 L 263.600 285.521 263.600 272.583 L 263.600 259.646 260.823 257.523 C 259.296 256.355,256.766 254.500,255.200 253.400 C 253.635 252.300,252.139 251.220,251.877 251.000 C 247.628 247.436,247.200 247.698,247.200 253.866 C 247.200 271.149,236.341 289.407,221.251 297.495 C 211.100 302.935,206.149 304.200,195.000 304.200 C 186.725 304.200,186.678 304.194,179.600 302.104 C 166.363 298.197,154.565 288.112,148.260 275.315 C 146.462 271.666,146.046 270.683,145.759 269.400 C 145.611 268.740,145.351 268.020,145.181 267.800 C 145.011 267.580,144.748 266.680,144.596 265.800 C 144.445 264.920,144.064 263.166,143.750 261.902 C 143.306 260.113,142.794 253.110,142.799 248.900 C 142.800 248.047,142.189 248.325,138.942 250.652 M151.418 256.537 C 149.945 257.614,151.953 266.203,155.081 272.200 C 156.145 274.241,156.605 274.400,161.427 274.400 C 167.593 274.400,167.443 274.643,165.966 267.071 C 165.545 264.909,165.200 261.894,165.200 260.371 C 165.200 256.132,164.979 256.000,157.876 256.000 C 153.718 256.000,151.952 256.147,151.418 256.537 M172.551 256.584 C 171.964 258.114,173.128 266.770,174.544 271.400 L 175.400 274.200 182.999 274.309 C 189.791 274.407,190.651 274.346,191.099 273.733 C 191.706 272.902,191.805 257.745,191.209 256.800 C 190.624 255.874,172.902 255.669,172.551 256.584 M200.000 256.292 C 198.897 256.711,198.812 257.360,198.806 265.420 C 198.799 275.321,197.935 274.400,207.231 274.400 L 214.703 274.400 215.151 273.200 C 215.398 272.540,215.782 271.505,216.005 270.900 C 216.228 270.295,216.569 268.630,216.763 267.200 C 216.958 265.770,217.346 263.158,217.626 261.396 C 217.906 259.634,218.011 257.699,217.860 257.096 L 217.585 256.000 209.092 256.032 C 204.422 256.049,200.330 256.166,200.000 256.292 M226.176 256.567 C 225.538 257.034,225.317 257.977,224.935 261.867 C 224.680 264.470,224.184 268.111,223.834 269.958 C 222.983 274.446,222.932 274.400,228.773 274.400 C 233.814 274.400,234.266 274.248,235.299 272.200 C 238.267 266.319,240.329 257.522,238.972 256.530 C 237.909 255.753,227.249 255.784,226.176 256.567 M162.400 282.462 C 162.400 283.380,169.200 289.179,171.880 290.547 C 174.397 291.831,174.497 291.435,172.588 287.754 C 171.604 285.859,170.800 284.072,170.800 283.783 C 170.800 282.445,169.596 282.000,165.971 282.000 C 163.538 282.000,162.400 282.147,162.400 282.462 M178.658 282.307 C 178.098 283.213,183.140 290.888,185.684 293.000 C 191.255 297.628,191.688 297.271,191.515 288.200 L 191.400 282.200 185.130 282.090 C 181.681 282.029,178.769 282.127,178.658 282.307 M199.067 282.267 C 198.625 282.708,198.755 295.525,199.204 295.802 C 199.827 296.187,202.813 294.536,204.859 292.675 C 207.540 290.237,212.359 282.893,211.707 282.240 C 211.377 281.910,199.398 281.935,199.067 282.267 M220.080 282.480 C 219.816 282.744,219.600 283.096,219.600 283.263 C 219.600 283.740,216.586 289.893,216.016 290.581 C 215.350 291.383,216.641 291.452,218.054 290.690 C 221.703 288.721,228.237 283.107,227.766 282.345 C 227.431 281.803,220.637 281.923,220.080 282.480 M159.430 328.417 C 162.782 330.335,162.712 330.655,157.952 335.128 C 155.686 337.258,152.205 340.569,150.216 342.488 C 146.024 346.531,145.573 346.645,143.279 344.238 C 141.069 341.918,141.129 341.581,144.300 338.521 C 145.785 337.088,149.022 333.955,151.493 331.558 C 156.498 326.703,156.460 326.718,159.430 328.417 M241.271 333.988 C 249.373 341.812,249.269 341.627,247.000 344.133 C 244.747 346.623,244.381 346.539,240.200 342.568 C 238.220 340.687,234.747 337.415,232.482 335.296 C 227.755 330.874,227.654 330.524,230.544 328.537 C 233.528 326.484,233.470 326.455,241.271 333.988 M178.809 339.805 C 180.924 340.898,182.995 342.444,183.262 343.128 C 183.592 343.973,183.460 344.768,181.402 354.400 C 181.096 355.830,180.735 357.810,180.600 358.800 C 180.372 360.468,180.115 361.744,178.585 368.800 C 178.275 370.230,177.901 372.360,177.754 373.534 C 177.414 376.259,176.802 376.519,173.046 375.533 C 169.631 374.636,169.517 374.534,170.000 372.785 C 170.211 372.020,170.672 369.866,171.023 367.997 C 171.375 366.129,171.901 363.430,172.192 362.000 C 172.484 360.570,172.936 358.320,173.198 357.000 C 173.459 355.680,173.916 353.520,174.213 352.200 C 174.510 350.880,174.860 349.080,174.992 348.200 C 175.123 347.320,175.492 345.430,175.812 344.000 C 176.132 342.570,176.489 340.905,176.605 340.300 C 176.846 339.039,177.182 338.963,178.809 339.805 M213.788 340.900 C 213.930 341.835,214.304 343.770,214.620 345.200 C 214.935 346.630,215.558 349.600,216.004 351.800 C 216.449 354.000,217.073 357.060,217.391 358.600 C 218.297 362.997,218.804 365.564,219.404 368.800 C 219.710 370.450,220.139 372.394,220.358 373.121 C 220.809 374.618,221.019 374.456,217.196 375.546 C 213.804 376.513,212.964 376.217,212.619 373.928 C 212.360 372.213,211.644 368.595,210.577 363.600 C 210.272 362.170,209.834 359.790,209.605 358.310 C 209.376 356.831,209.011 355.154,208.794 354.584 C 208.577 354.014,208.400 353.098,208.400 352.548 C 208.400 351.997,208.013 349.918,207.539 347.926 C 206.345 342.903,206.420 342.741,211.200 340.030 C 213.201 338.894,213.498 338.994,213.788 340.900 " stroke="none" fill="#fbfbfb" fill-rule="evenodd"></path></g></svg>